<svg width="36" height="44" viewBox="0 0 36 44" fill="none" xmlns="http://www.w3.org/2000/svg">
<path d="M24 23.5L17.775 17.425C17 16.675 16.3438 15.8438 15.8063 14.9312C15.2688 14.0187 15 13.025 15 11.95C15 10.575 15.4813 9.40625 16.4438 8.44375C17.4063 7.48125 18.575 7 19.95 7C20.75 7 21.5 7.16875 22.2 7.50625C22.9 7.84375 23.5 8.3 24 8.875C24.5 8.3 25.1 7.84375 25.8 7.50625C26.5 7.16875 27.25 7 28.05 7C29.425 7 30.5938 7.48125 31.5563 8.44375C32.5188 9.40625 33 10.575 33 11.95C33 13.025 32.7375 14.0187 32.2125 14.9312C31.6875 15.8438 31.0375 16.675 30.2625 17.425L24 23.5ZM24 19.3L28.0875 15.2875C28.5625 14.8125 29 14.3062 29.4 13.7687C29.8 13.2312 30 12.625 30 11.95C30 11.4 29.8125 10.9375 29.4375 10.5625C29.0625 10.1875 28.6 10 28.05 10C27.7 10 27.3688 10.0687 27.0563 10.2062C26.7438 10.3437 26.475 10.55 26.25 10.825L24 13.525L21.75 10.825C21.525 10.55 21.2563 10.3437 20.9438 10.2062C20.6313 10.0687 20.3 10 19.95 10C19.4 10 18.9375 10.1875 18.5625 10.5625C18.1875 10.9375 18 11.4 18 11.95C18 12.625 18.2 13.2312 18.6 13.7687C19 14.3062 19.4375 14.8125 19.9125 15.2875L24 19.3ZM10.5 31.75L20.925 34.6L29.85 31.825C29.725 31.6 29.5438 31.4062 29.3063 31.2437C29.0688 31.0812 28.8 31 28.5 31H20.925C20.25 31 19.7125 30.975 19.3125 30.925C18.9125 30.875 18.5 30.775 18.075 30.625L14.5875 29.4625L15.4125 26.5375L18.45 27.55C18.875 27.675 19.375 27.775 19.95 27.85C20.525 27.925 21.375 27.975 22.5 28C22.5 27.725 22.4188 27.4625 22.2563 27.2125C22.0938 26.9625 21.9 26.8 21.675 26.725L12.9 23.5H10.5V31.75ZM1.5 37V20.5H12.9C13.075 20.5 13.25 20.5187 13.425 20.5562C13.6 20.5938 13.7625 20.6375 13.9125 20.6875L22.725 23.95C23.55 24.25 24.2188 24.775 24.7313 25.525C25.2438 26.275 25.5 27.1 25.5 28H28.5C29.75 28 30.8125 28.4125 31.6875 29.2375C32.5625 30.0625 33 31.15 33 32.5V34L21 37.75L10.5 34.825V37H1.5ZM4.5 34H7.5V23.5H4.5V34Z" fill="#63E963"/>
</svg>
