<svg width="36" height="44" viewBox="0 0 36 44" fill="none" xmlns="http://www.w3.org/2000/svg">
<path d="M3 35.5C2.175 35.5 1.46875 35.2063 0.88125 34.6187C0.29375 34.0312 0 33.325 0 32.5V11.5C0 10.675 0.29375 9.96875 0.88125 9.38125C1.46875 8.79375 2.175 8.5 3 8.5H33C33.825 8.5 34.5312 8.79375 35.1188 9.38125C35.7063 9.96875 36 10.675 36 11.5V32.5C36 33.325 35.7063 34.0312 35.1188 34.6187C34.5312 35.2063 33.825 35.5 33 35.5H3ZM23.85 32.5H33V11.5H3V32.5H3.15C4.2 30.625 5.65 29.1562 7.5 28.0937C9.35 27.0312 11.35 26.5 13.5 26.5C15.65 26.5 17.65 27.0312 19.5 28.0937C21.35 29.1562 22.8 30.625 23.85 32.5ZM13.5 25C14.75 25 15.8125 24.5625 16.6875 23.6875C17.5625 22.8125 18 21.75 18 20.5C18 19.25 17.5625 18.1875 16.6875 17.3125C15.8125 16.4375 14.75 16 13.5 16C12.25 16 11.1875 16.4375 10.3125 17.3125C9.4375 18.1875 9 19.25 9 20.5C9 21.75 9.4375 22.8125 10.3125 23.6875C11.1875 24.5625 12.25 25 13.5 25ZM28.5 31L31.5 28L29.25 25H26.775C26.625 24.55 26.5 24.0687 26.4 23.5562C26.3 23.0437 26.25 22.525 26.25 22C26.25 21.475 26.3 20.9687 26.4 20.4812C26.5 19.9937 26.625 19.5 26.775 19H29.25L31.5 16L28.5 13C27.15 14.05 26.0625 15.3812 25.2375 16.9937C24.4125 18.6062 24 20.275 24 22C24 23.725 24.4125 25.3937 25.2375 27.0062C26.0625 28.6187 27.15 29.95 28.5 31ZM6.825 32.5H20.175C19.325 31.55 18.3188 30.8125 17.1562 30.2875C15.9938 29.7625 14.775 29.5 13.5 29.5C12.225 29.5 11.0125 29.7625 9.8625 30.2875C8.7125 30.8125 7.7 31.55 6.825 32.5ZM13.5 22C13.075 22 12.7188 21.8562 12.4313 21.5687C12.1438 21.2812 12 20.925 12 20.5C12 20.075 12.1438 19.7187 12.4313 19.4312C12.7188 19.1437 13.075 19 13.5 19C13.925 19 14.2813 19.1437 14.5688 19.4312C14.8563 19.7187 15 20.075 15 20.5C15 20.925 14.8563 21.2812 14.5688 21.5687C14.2813 21.8562 13.925 22 13.5 22Z" fill="#63E963"/>
</svg>
