<svg width="48" height="48" viewBox="0 0 48 48" fill="none" xmlns="http://www.w3.org/2000/svg">
<g filter="url(#filter0_d_60_263)">
<rect x="2" y="1" width="44" height="44" rx="22" fill="white" fill-opacity="0.5" shape-rendering="crispEdges"/>
<path d="M32.3332 23C32.3332 18.3975 28.6023 14.6667 23.9998 14.6667C19.3973 14.6667 15.6665 18.3975 15.6665 23C15.6665 27.1592 18.714 30.6067 22.6982 31.2317V25.4092H20.5815V23H22.6982V21.1642C22.6982 19.0759 23.9415 17.9225 25.8457 17.9225C26.7573 17.9225 27.7107 18.085 27.7107 18.085V20.135H26.6607C25.6248 20.135 25.3023 20.7775 25.3023 21.4367V23H27.6132L27.244 25.4084H25.3023V31.2317C29.2857 30.6067 32.3332 27.1592 32.3332 23Z" fill="#1B431B"/>
</g>
<defs>
<filter id="filter0_d_60_263" x="0" y="0" width="48" height="48" filterUnits="userSpaceOnUse" color-interpolation-filters="sRGB">
<feFlood flood-opacity="0" result="BackgroundImageFix"/>
<feColorMatrix in="SourceAlpha" type="matrix" values="0 0 0 0 0 0 0 0 0 0 0 0 0 0 0 0 0 0 127 0" result="hardAlpha"/>
<feOffset dy="1"/>
<feGaussianBlur stdDeviation="1"/>
<feComposite in2="hardAlpha" operator="out"/>
<feColorMatrix type="matrix" values="0 0 0 0 0 0 0 0 0 0 0 0 0 0 0 0 0 0 0.05 0"/>
<feBlend mode="normal" in2="BackgroundImageFix" result="effect1_dropShadow_60_263"/>
<feBlend mode="normal" in="SourceGraphic" in2="effect1_dropShadow_60_263" result="shape"/>
</filter>
</defs>
</svg>
