<svg width="36" height="44" viewBox="0 0 36 44" fill="none" xmlns="http://www.w3.org/2000/svg">
<path d="M18 34C16.8 33.05 15.5 32.3125 14.1 31.7875C12.7 31.2625 11.25 31 9.75 31C8.7 31 7.66875 31.1375 6.65625 31.4125C5.64375 31.6875 4.675 32.075 3.75 32.575C3.225 32.85 2.71875 32.8375 2.23125 32.5375C1.74375 32.2375 1.5 31.8 1.5 31.225V13.15C1.5 12.875 1.56875 12.6125 1.70625 12.3625C1.84375 12.1125 2.05 11.925 2.325 11.8C3.475 11.2 4.675 10.75 5.925 10.45C7.175 10.15 8.45 10 9.75 10C11.2 10 12.6188 10.1875 14.0063 10.5625C15.3938 10.9375 16.725 11.5 18 12.25V30.4C19.275 29.6 20.6125 29 22.0125 28.6C23.4125 28.2 24.825 28 26.25 28C27.15 28 28.0313 28.075 28.8938 28.225C29.7563 28.375 30.625 28.6 31.5 28.9V10.9C31.875 11.025 32.2438 11.1562 32.6063 11.2937C32.9688 11.4312 33.325 11.6 33.675 11.8C33.95 11.925 34.1562 12.1125 34.2938 12.3625C34.4313 12.6125 34.5 12.875 34.5 13.15V31.225C34.5 31.8 34.2563 32.2375 33.7688 32.5375C33.2813 32.8375 32.775 32.85 32.25 32.575C31.325 32.075 30.3563 31.6875 29.3438 31.4125C28.3313 31.1375 27.3 31 26.25 31C24.75 31 23.3 31.2625 21.9 31.7875C20.5 32.3125 19.2 33.05 18 34ZM21 26.5V12.25L28.5 4.75V19.75L21 26.5ZM15 28.9375V14.0875C14.175 13.7375 13.3188 13.4688 12.4313 13.2812C11.5438 13.0938 10.65 13 9.75 13C8.825 13 7.925 13.0875 7.05 13.2625C6.175 13.4375 5.325 13.7 4.5 14.05V28.9375C5.375 28.6125 6.24375 28.375 7.10625 28.225C7.96875 28.075 8.85 28 9.75 28C10.65 28 11.5312 28.075 12.3938 28.225C13.2563 28.375 14.125 28.6125 15 28.9375Z" fill="#63E963"/>
</svg>
