<svg width="68" height="72" viewBox="0 0 68 72" fill="none" xmlns="http://www.w3.org/2000/svg">
<rect width="68" height="72" rx="34" fill="#63E963" fill-opacity="0.1"/>
<path d="M34 51C33.175 51 32.4688 50.7063 31.8813 50.1187C31.2938 49.5312 31 48.825 31 48H37C37 48.825 36.7063 49.5312 36.1188 50.1187C35.5313 50.7063 34.825 51 34 51ZM28 46.5V43.5H40V46.5H28ZM28.375 42C26.65 40.975 25.2812 39.6 24.2688 37.875C23.2563 36.15 22.75 34.275 22.75 32.25C22.75 29.125 23.8438 26.4687 26.0313 24.2812C28.2188 22.0937 30.875 21 34 21C37.125 21 39.7812 22.0937 41.9688 24.2812C44.1562 26.4687 45.25 29.125 45.25 32.25C45.25 34.275 44.7438 36.15 43.7313 37.875C42.7188 39.6 41.35 40.975 39.625 42H28.375ZM29.275 39H38.725C39.85 38.2 40.7188 37.2125 41.3313 36.0375C41.9438 34.8625 42.25 33.6 42.25 32.25C42.25 29.95 41.45 28 39.85 26.4C38.25 24.8 36.3 24 34 24C31.7 24 29.75 24.8 28.15 26.4C26.55 28 25.75 29.95 25.75 32.25C25.75 33.6 26.0563 34.8625 26.6688 36.0375C27.2812 37.2125 28.15 38.2 29.275 39Z" fill="#63E963"/>
</svg>
