<svg width="68" height="72" viewBox="0 0 68 72" fill="none" xmlns="http://www.w3.org/2000/svg">
<rect width="68" height="72" rx="34" fill="#63E963" fill-opacity="0.1"/>
<path d="M16 45V42.6375C16 41.5625 16.55 40.6875 17.65 40.0125C18.75 39.3375 20.2 39 22 39C22.325 39 22.6375 39.0062 22.9375 39.0187C23.2375 39.0312 23.525 39.0625 23.8 39.1125C23.45 39.6375 23.1875 40.1875 23.0125 40.7625C22.8375 41.3375 22.75 41.9375 22.75 42.5625V45H16ZM25 45V42.5625C25 41.7625 25.2188 41.0312 25.6562 40.3687C26.0938 39.7062 26.7125 39.125 27.5125 38.625C28.3125 38.125 29.2688 37.75 30.3813 37.5C31.4938 37.25 32.7 37.125 34 37.125C35.325 37.125 36.5438 37.25 37.6562 37.5C38.7688 37.75 39.725 38.125 40.525 38.625C41.325 39.125 41.9375 39.7062 42.3625 40.3687C42.7875 41.0312 43 41.7625 43 42.5625V45H25ZM45.25 45V42.5625C45.25 41.9125 45.1688 41.3 45.0063 40.725C44.8438 40.15 44.6 39.6125 44.275 39.1125C44.55 39.0625 44.8313 39.0312 45.1188 39.0187C45.4063 39.0062 45.7 39 46 39C47.8 39 49.25 39.3312 50.35 39.9937C51.45 40.6562 52 41.5375 52 42.6375V45H45.25ZM28.1875 42H39.85C39.6 41.5 38.9062 41.0625 37.7688 40.6875C36.6313 40.3125 35.375 40.125 34 40.125C32.625 40.125 31.3688 40.3125 30.2313 40.6875C29.0938 41.0625 28.4125 41.5 28.1875 42ZM22 37.5C21.175 37.5 20.4688 37.2062 19.8813 36.6187C19.2938 36.0312 19 35.325 19 34.5C19 33.65 19.2938 32.9375 19.8813 32.3625C20.4688 31.7875 21.175 31.5 22 31.5C22.85 31.5 23.5625 31.7875 24.1375 32.3625C24.7125 32.9375 25 33.65 25 34.5C25 35.325 24.7125 36.0312 24.1375 36.6187C23.5625 37.2062 22.85 37.5 22 37.5ZM46 37.5C45.175 37.5 44.4688 37.2062 43.8813 36.6187C43.2938 36.0312 43 35.325 43 34.5C43 33.65 43.2938 32.9375 43.8813 32.3625C44.4688 31.7875 45.175 31.5 46 31.5C46.85 31.5 47.5625 31.7875 48.1375 32.3625C48.7125 32.9375 49 33.65 49 34.5C49 35.325 48.7125 36.0312 48.1375 36.6187C47.5625 37.2062 46.85 37.5 46 37.5ZM34 36C32.75 36 31.6875 35.5625 30.8125 34.6875C29.9375 33.8125 29.5 32.75 29.5 31.5C29.5 30.225 29.9375 29.1562 30.8125 28.2937C31.6875 27.4312 32.75 27 34 27C35.275 27 36.3438 27.4312 37.2063 28.2937C38.0688 29.1562 38.5 30.225 38.5 31.5C38.5 32.75 38.0688 33.8125 37.2063 34.6875C36.3438 35.5625 35.275 36 34 36ZM34 33C34.425 33 34.7812 32.8562 35.0688 32.5687C35.3563 32.2812 35.5 31.925 35.5 31.5C35.5 31.075 35.3563 30.7187 35.0688 30.4312C34.7812 30.1437 34.425 30 34 30C33.575 30 33.2188 30.1437 32.9313 30.4312C32.6438 30.7187 32.5 31.075 32.5 31.5C32.5 31.925 32.6438 32.2812 32.9313 32.5687C33.2188 32.8562 33.575 33 34 33Z" fill="#63E963"/>
</svg>
