<svg width="20" height="24" viewBox="0 0 20 24" fill="none" xmlns="http://www.w3.org/2000/svg">
<path d="M10 20.3333L9.79167 17.8333H9.58333C7.61111 17.8333 5.9375 17.1458 4.5625 15.7708C3.1875 14.3958 2.5 12.7222 2.5 10.75C2.5 8.77776 3.1875 7.10415 4.5625 5.72915C5.9375 4.35414 7.61111 3.66665 9.58333 3.66665C10.5694 3.66665 11.4896 3.85067 12.3438 4.21873C13.1979 4.58678 13.9479 5.09373 14.5938 5.73956C15.2396 6.3854 15.7465 7.1354 16.1146 7.98956C16.4826 8.84373 16.6667 9.76387 16.6667 10.75C16.6667 11.7916 16.4965 12.7916 16.1562 13.75C15.816 14.7083 15.3507 15.5972 14.7604 16.4166C14.1701 17.2361 13.4688 17.9791 12.6562 18.6458C11.8438 19.3125 10.9583 19.875 10 20.3333ZM11.6667 17.2916C12.6528 16.4583 13.4549 15.4826 14.0729 14.3646C14.691 13.2465 15 12.0416 15 10.75C15 9.23609 14.4757 7.95484 13.4271 6.90623C12.3785 5.85762 11.0972 5.33331 9.58333 5.33331C8.06944 5.33331 6.78819 5.85762 5.73958 6.90623C4.69097 7.95484 4.16667 9.23609 4.16667 10.75C4.16667 12.2639 4.69097 13.5451 5.73958 14.5937C6.78819 15.6423 8.06944 16.1666 9.58333 16.1666H11.6667V17.2916ZM9.5625 15.3125C9.79861 15.3125 10 15.2291 10.1667 15.0625C10.3333 14.8958 10.4167 14.6944 10.4167 14.4583C10.4167 14.2222 10.3333 14.0208 10.1667 13.8541C10 13.6875 9.79861 13.6041 9.5625 13.6041C9.32639 13.6041 9.125 13.6875 8.95833 13.8541C8.79167 14.0208 8.70833 14.2222 8.70833 14.4583C8.70833 14.6944 8.79167 14.8958 8.95833 15.0625C9.125 15.2291 9.32639 15.3125 9.5625 15.3125ZM8.95833 12.6666H10.2083C10.2083 12.25 10.25 11.9583 10.3333 11.7916C10.4167 11.625 10.6806 11.3194 11.125 10.875C11.375 10.625 11.5833 10.3541 11.75 10.0625C11.9167 9.77081 12 9.45831 12 9.12498C12 8.41665 11.7604 7.8854 11.2812 7.53123C10.8021 7.17706 10.2361 6.99998 9.58333 6.99998C8.97222 6.99998 8.45833 7.17012 8.04167 7.5104C7.625 7.85067 7.33333 8.26387 7.16667 8.74998L8.33333 9.20831C8.40278 8.9722 8.53472 8.73956 8.72917 8.5104C8.92361 8.28123 9.20833 8.16665 9.58333 8.16665C9.95833 8.16665 10.2396 8.27081 10.4271 8.47915C10.6146 8.68748 10.7083 8.91665 10.7083 9.16665C10.7083 9.40276 10.6389 9.61456 10.5 9.80206C10.3611 9.98956 10.1944 10.1805 10 10.375C9.51389 10.7916 9.21875 11.1215 9.11458 11.3646C9.01042 11.6076 8.95833 12.0416 8.95833 12.6666Z" fill="white"/>
</svg>
