<svg width="48" height="48" viewBox="0 0 48 48" fill="none" xmlns="http://www.w3.org/2000/svg">
<g filter="url(#filter0_d_60_260)">
<rect x="2" y="1" width="44" height="44" rx="22" fill="white" fill-opacity="0.5" shape-rendering="crispEdges"/>
<path d="M24.2623 14.6667C26.2873 14.6667 26.5823 14.6775 27.4357 14.7167C28.3223 14.7575 28.9282 14.8984 29.4582 15.1042C30.0144 15.3132 30.5184 15.6412 30.9348 16.065C31.3587 16.4815 31.6866 16.9854 31.8957 17.5417C32.1015 18.0717 32.2423 18.6775 32.2832 19.5642C32.3232 20.4534 32.3332 20.7367 32.3332 23V23.0667C32.3332 25.2692 32.3232 25.5559 32.2832 26.4359C32.2423 27.3225 32.1015 27.9284 31.8957 28.4584C31.6866 29.0146 31.3587 29.5185 30.9348 29.935C30.5184 30.3589 30.0144 30.6868 29.4582 30.8959C28.9282 31.1017 28.3223 31.2425 27.4357 31.2834C26.5465 31.3234 26.2632 31.3334 23.9998 31.3334H23.9332C21.7307 31.3334 21.444 31.3234 20.564 31.2834C19.6773 31.2425 19.0715 31.1017 18.5415 30.8959C17.9853 30.6868 17.4813 30.3589 17.0648 29.935C16.641 29.5185 16.3131 29.0146 16.104 28.4584C15.8982 27.9284 15.7573 27.3225 15.7165 26.4359C15.6773 25.5825 15.6665 25.2867 15.6665 23.2625V22.7375C15.6665 20.7125 15.6773 20.4175 15.7165 19.5642C15.7573 18.6775 15.8982 18.0717 16.104 17.5417C16.3131 16.9854 16.641 16.4815 17.0648 16.065C17.4813 15.6412 17.9853 15.3132 18.5415 15.1042C19.0715 14.8984 19.6773 14.7575 20.564 14.7167C21.4173 14.6775 21.7132 14.6667 23.7373 14.6667H24.2623ZM24.1948 16.1684H23.8048C21.7582 16.1684 21.4848 16.1775 20.6323 16.2167C19.8198 16.2542 19.379 16.3892 19.0848 16.5034C18.6957 16.655 18.4182 16.835 18.1265 17.1267C17.8348 17.4184 17.6548 17.6959 17.5032 18.085C17.389 18.3792 17.2532 18.82 17.2165 19.6325C17.1773 20.485 17.1682 20.7584 17.1682 22.805V23.195C17.1682 25.2417 17.1773 25.515 17.2165 26.3675C17.254 27.18 17.389 27.6209 17.5032 27.915C17.6548 28.3034 17.8357 28.5817 18.1265 28.8734C18.4182 29.165 18.6957 29.345 19.0848 29.4967C19.379 29.6109 19.8198 29.7467 20.6323 29.7834C21.5107 29.8234 21.774 29.8317 23.9998 29.8317H24.0665C26.2307 29.8317 26.4973 29.8234 27.3665 29.7834C28.1798 29.7459 28.6207 29.6109 28.9148 29.4967C29.3032 29.345 29.5815 29.165 29.8732 28.8734C30.1648 28.5817 30.3448 28.3042 30.4965 27.915C30.6107 27.6209 30.7465 27.18 30.7832 26.3675C30.8232 25.4884 30.8315 25.2259 30.8315 23V22.9334C30.8315 20.7692 30.8232 20.5025 30.7832 19.6334C30.7457 18.82 30.6107 18.3792 30.4965 18.085C30.363 17.723 30.15 17.3955 29.8732 17.1267C29.6043 16.8499 29.2769 16.6369 28.9148 16.5034C28.6207 16.3892 28.1798 16.2534 27.3673 16.2167C26.5148 16.1775 26.2415 16.1684 24.1948 16.1684ZM23.9998 18.7209C24.5618 18.7209 25.1182 18.8315 25.6374 19.0466C26.1566 19.2616 26.6283 19.5768 27.0257 19.9742C27.423 20.3716 27.7382 20.8433 27.9533 21.3625C28.1683 21.8816 28.279 22.4381 28.279 23C28.279 23.562 28.1683 24.1184 27.9533 24.6376C27.7382 25.1568 27.423 25.6285 27.0257 26.0258C26.6283 26.4232 26.1566 26.7384 25.6374 26.9535C25.1182 27.1685 24.5618 27.2792 23.9998 27.2792C22.8649 27.2792 21.7765 26.8283 20.974 26.0258C20.1715 25.2233 19.7207 24.1349 19.7207 23C19.7207 21.8651 20.1715 20.7767 20.974 19.9742C21.7765 19.1717 22.8649 18.7209 23.9998 18.7209ZM23.9998 20.2225C23.2632 20.2225 22.5567 20.5151 22.0358 21.036C21.515 21.5569 21.2223 22.2634 21.2223 23C21.2223 23.7367 21.515 24.4431 22.0358 24.964C22.5567 25.4849 23.2632 25.7775 23.9998 25.7775C24.7365 25.7775 25.4429 25.4849 25.9638 24.964C26.4847 24.4431 26.7773 23.7367 26.7773 23C26.7773 22.2634 26.4847 21.5569 25.9638 21.036C25.4429 20.5151 24.7365 20.2225 23.9998 20.2225ZM28.4482 17.5517C28.7134 17.5517 28.9677 17.657 29.1553 17.8446C29.3428 18.0321 29.4482 18.2865 29.4482 18.5517C29.4482 18.8169 29.3428 19.0713 29.1553 19.2588C28.9677 19.4463 28.7134 19.5517 28.4482 19.5517C28.183 19.5517 27.9286 19.4463 27.7411 19.2588C27.5535 19.0713 27.4482 18.8169 27.4482 18.5517C27.4482 18.2865 27.5535 18.0321 27.7411 17.8446C27.9286 17.657 28.183 17.5517 28.4482 17.5517Z" fill="#1B431B"/>
</g>
<defs>
<filter id="filter0_d_60_260" x="0" y="0" width="48" height="48" filterUnits="userSpaceOnUse" color-interpolation-filters="sRGB">
<feFlood flood-opacity="0" result="BackgroundImageFix"/>
<feColorMatrix in="SourceAlpha" type="matrix" values="0 0 0 0 0 0 0 0 0 0 0 0 0 0 0 0 0 0 127 0" result="hardAlpha"/>
<feOffset dy="1"/>
<feGaussianBlur stdDeviation="1"/>
<feComposite in2="hardAlpha" operator="out"/>
<feColorMatrix type="matrix" values="0 0 0 0 0 0 0 0 0 0 0 0 0 0 0 0 0 0 0.05 0"/>
<feBlend mode="normal" in2="BackgroundImageFix" result="effect1_dropShadow_60_260"/>
<feBlend mode="normal" in="SourceGraphic" in2="effect1_dropShadow_60_260" result="shape"/>
</filter>
</defs>
</svg>
