<svg width="36" height="44" viewBox="0 0 36 44" fill="none" xmlns="http://www.w3.org/2000/svg">
<path d="M9 37V30.55C7.575 29.25 6.46875 27.7312 5.68125 25.9937C4.89375 24.2562 4.5 22.425 4.5 20.5C4.5 16.75 5.8125 13.5625 8.4375 10.9375C11.0625 8.3125 14.25 7 18 7C21.125 7 23.8938 7.91875 26.3063 9.75625C28.7188 11.5937 30.2875 13.9875 31.0125 16.9375L32.9625 24.625C33.0875 25.1 33 25.5312 32.7 25.9187C32.4 26.3062 32 26.5 31.5 26.5H28.5V31C28.5 31.825 28.2063 32.5312 27.6188 33.1187C27.0312 33.7062 26.325 34 25.5 34H22.5V37H19.5V31H25.5V23.5H29.55L28.125 17.6875C27.55 15.4125 26.325 13.5625 24.45 12.1375C22.575 10.7125 20.425 10 18 10C15.1 10 12.625 11.0125 10.575 13.0375C8.525 15.0625 7.5 17.525 7.5 20.425C7.5 21.925 7.80625 23.35 8.41875 24.7C9.03125 26.05 9.9 27.25 11.025 28.3L12 29.2V37H9ZM16.5 26.5H19.5L19.725 24.625C19.925 24.55 20.1063 24.4625 20.2688 24.3625C20.4313 24.2625 20.575 24.15 20.7 24.025L22.425 24.775L23.925 22.225L22.425 21.1C22.475 20.9 22.5 20.7 22.5 20.5C22.5 20.3 22.475 20.1 22.425 19.9L23.925 18.775L22.425 16.225L20.7 16.975C20.575 16.85 20.4313 16.7375 20.2688 16.6375C20.1063 16.5375 19.925 16.45 19.725 16.375L19.5 14.5H16.5L16.275 16.375C16.075 16.45 15.8938 16.5375 15.7313 16.6375C15.5688 16.7375 15.425 16.85 15.3 16.975L13.575 16.225L12.075 18.775L13.575 19.9C13.525 20.1 13.5 20.3 13.5 20.5C13.5 20.7 13.525 20.9 13.575 21.1L12.075 22.225L13.575 24.775L15.3 24.025C15.425 24.15 15.5688 24.2625 15.7313 24.3625C15.8938 24.4625 16.075 24.55 16.275 24.625L16.5 26.5ZM18 22.75C17.375 22.75 16.8438 22.5312 16.4062 22.0937C15.9688 21.6562 15.75 21.125 15.75 20.5C15.75 19.875 15.9688 19.3438 16.4062 18.9062C16.8438 18.4688 17.375 18.25 18 18.25C18.625 18.25 19.1563 18.4688 19.5938 18.9062C20.0313 19.3438 20.25 19.875 20.25 20.5C20.25 21.125 20.0313 21.6562 19.5938 22.0937C19.1563 22.5312 18.625 22.75 18 22.75Z" fill="#63E963"/>
</svg>
