<svg width="48" height="48" viewBox="0 0 48 48" fill="none" xmlns="http://www.w3.org/2000/svg">
<rect width="48" height="48" rx="24" fill="#63E963" fill-opacity="0.2"/>
<path d="M15.25 35.25C14.5625 35.25 13.974 35.0052 13.4844 34.5156C12.9948 34.026 12.75 33.4375 12.75 32.75V27.75H15.25V32.75H20.25V35.25H15.25ZM27.75 35.25V32.75H32.75V27.75H35.25V32.75C35.25 33.4375 35.0052 34.026 34.5156 34.5156C34.026 35.0052 33.4375 35.25 32.75 35.25H27.75ZM12.75 20.25V15.25C12.75 14.5625 12.9948 13.974 13.4844 13.4844C13.974 12.9948 14.5625 12.75 15.25 12.75H20.25V15.25H15.25V20.25H12.75ZM32.75 20.25V15.25H27.75V12.75H32.75C33.4375 12.75 34.026 12.9948 34.5156 13.4844C35.0052 13.974 35.25 14.5625 35.25 15.25V20.25H32.75ZM24 30.25C22.2708 30.25 20.7969 29.6406 19.5781 28.4219C18.3594 27.2031 17.75 25.7292 17.75 24C17.75 22.2708 18.3594 20.7969 19.5781 19.5781C20.7969 18.3594 22.2708 17.75 24 17.75C25.7292 17.75 27.2031 18.3594 28.4219 19.5781C29.6406 20.7969 30.25 22.2708 30.25 24C30.25 25.7292 29.6406 27.2031 28.4219 28.4219C27.2031 29.6406 25.7292 30.25 24 30.25ZM24 27.75C25.0417 27.75 25.9271 27.3854 26.6562 26.6562C27.3854 25.9271 27.75 25.0417 27.75 24C27.75 22.9583 27.3854 22.0729 26.6562 21.3438C25.9271 20.6146 25.0417 20.25 24 20.25C22.9583 20.25 22.0729 20.6146 21.3438 21.3438C20.6146 22.0729 20.25 22.9583 20.25 24C20.25 25.0417 20.6146 25.9271 21.3438 26.6562C22.0729 27.3854 22.9583 27.75 24 27.75Z" fill="#63E963"/>
</svg>
