<svg width="48" height="48" viewBox="0 0 48 48" fill="none" xmlns="http://www.w3.org/2000/svg">
<rect width="48" height="48" rx="24" fill="#63E963" fill-opacity="0.2"/>
<path d="M24 29C25.5625 29 26.8906 28.4531 27.9844 27.3594C29.0781 26.2656 29.625 24.9375 29.625 23.375C29.625 21.8125 29.0781 20.4844 27.9844 19.3906C26.8906 18.2969 25.5625 17.75 24 17.75C22.4375 17.75 21.1094 18.2969 20.0156 19.3906C18.9219 20.4844 18.375 21.8125 18.375 23.375C18.375 24.9375 18.9219 26.2656 20.0156 27.3594C21.1094 28.4531 22.4375 29 24 29ZM24 26.75C23.0625 26.75 22.2656 26.4219 21.6094 25.7656C20.9531 25.1094 20.625 24.3125 20.625 23.375C20.625 22.4375 20.9531 21.6406 21.6094 20.9844C22.2656 20.3281 23.0625 20 24 20C24.9375 20 25.7344 20.3281 26.3906 20.9844C27.0469 21.6406 27.375 22.4375 27.375 23.375C27.375 24.3125 27.0469 25.1094 26.3906 25.7656C25.7344 26.4219 24.9375 26.75 24 26.75ZM24 32.75C20.9583 32.75 18.1875 31.901 15.6875 30.2031C13.1875 28.5052 11.375 26.2292 10.25 23.375C11.375 20.5208 13.1875 18.2448 15.6875 16.5469C18.1875 14.849 20.9583 14 24 14C27.0417 14 29.8125 14.849 32.3125 16.5469C34.8125 18.2448 36.625 20.5208 37.75 23.375C36.625 26.2292 34.8125 28.5052 32.3125 30.2031C29.8125 31.901 27.0417 32.75 24 32.75ZM24 30.25C26.3542 30.25 28.5156 29.6302 30.4844 28.3906C32.4531 27.151 33.9583 25.4792 35 23.375C33.9583 21.2708 32.4531 19.599 30.4844 18.3594C28.5156 17.1198 26.3542 16.5 24 16.5C21.6458 16.5 19.4844 17.1198 17.5156 18.3594C15.5469 19.599 14.0417 21.2708 13 23.375C14.0417 25.4792 15.5469 27.151 17.5156 28.3906C19.4844 29.6302 21.6458 30.25 24 30.25Z" fill="#63E963"/>
</svg>
