<svg width="68" height="72" viewBox="0 0 68 72" fill="none" xmlns="http://www.w3.org/2000/svg">
<rect width="68" height="72" rx="34" fill="#63E963" fill-opacity="0.1"/>
<path d="M34 51C30.525 50.125 27.6562 48.1312 25.3938 45.0187C23.1313 41.9062 22 38.45 22 34.65V25.5L34 21L46 25.5V34.65C46 38.45 44.8688 41.9062 42.6063 45.0187C40.3438 48.1312 37.475 50.125 34 51ZM34 47.85C36.425 47.1 38.45 45.6187 40.075 43.4062C41.7 41.1937 42.65 38.725 42.925 36H34V24.1875L25 27.5625V34.65C25 34.925 25 35.15 25 35.325C25 35.5 25.025 35.725 25.075 36H34V47.85Z" fill="#63E963"/>
</svg>
