<svg width="36" height="44" viewBox="0 0 36 44" fill="none" xmlns="http://www.w3.org/2000/svg">
<path d="M15.75 26.5H20.25L19.3875 21.6625C19.8875 21.4125 20.2813 21.05 20.5688 20.575C20.8563 20.1 21 19.575 21 19C21 18.175 20.7063 17.4688 20.1188 16.8812C19.5313 16.2937 18.825 16 18 16C17.175 16 16.4688 16.2937 15.8813 16.8812C15.2938 17.4688 15 18.175 15 19C15 19.575 15.1438 20.1 15.4313 20.575C15.7188 21.05 16.1125 21.4125 16.6125 21.6625L15.75 26.5ZM18 37C14.525 36.125 11.6562 34.1312 9.39375 31.0187C7.13125 27.9062 6 24.45 6 20.65V11.5L18 7L30 11.5V20.65C30 24.45 28.8688 27.9062 26.6063 31.0187C24.3438 34.1312 21.475 36.125 18 37ZM18 33.85C20.6 33.025 22.75 31.375 24.45 28.9C26.15 26.425 27 23.675 27 20.65V13.5625L18 10.1875L9 13.5625V20.65C9 23.675 9.85 26.425 11.55 28.9C13.25 31.375 15.4 33.025 18 33.85Z" fill="#63E963"/>
</svg>
