<svg width="68" height="72" viewBox="0 0 68 72" fill="none" xmlns="http://www.w3.org/2000/svg">
<rect width="68" height="72" rx="34" fill="#63E963" fill-opacity="0.1"/>
<path d="M40 37.5L33.775 31.425C33 30.675 32.3438 29.8438 31.8063 28.9312C31.2688 28.0187 31 27.025 31 25.95C31 24.575 31.4813 23.4062 32.4438 22.4437C33.4063 21.4812 34.575 21 35.95 21C36.75 21 37.5 21.1687 38.2 21.5062C38.9 21.8437 39.5 22.3 40 22.875C40.5 22.3 41.1 21.8437 41.8 21.5062C42.5 21.1687 43.25 21 44.05 21C45.425 21 46.5938 21.4812 47.5563 22.4437C48.5188 23.4062 49 24.575 49 25.95C49 27.025 48.7375 28.0187 48.2125 28.9312C47.6875 29.8438 47.0375 30.675 46.2625 31.425L40 37.5ZM40 33.3L44.0875 29.2875C44.5625 28.8125 45 28.3062 45.4 27.7687C45.8 27.2312 46 26.625 46 25.95C46 25.4 45.8125 24.9375 45.4375 24.5625C45.0625 24.1875 44.6 24 44.05 24C43.7 24 43.3688 24.0687 43.0563 24.2062C42.7438 24.3437 42.475 24.55 42.25 24.825L40 27.525L37.75 24.825C37.525 24.55 37.2563 24.3437 36.9438 24.2062C36.6313 24.0687 36.3 24 35.95 24C35.4 24 34.9375 24.1875 34.5625 24.5625C34.1875 24.9375 34 25.4 34 25.95C34 26.625 34.2 27.2312 34.6 27.7687C35 28.3062 35.4375 28.8125 35.9125 29.2875L40 33.3ZM26.5 45.75L36.925 48.6L45.85 45.825C45.725 45.6 45.5438 45.4062 45.3063 45.2437C45.0688 45.0812 44.8 45 44.5 45H36.925C36.25 45 35.7125 44.975 35.3125 44.925C34.9125 44.875 34.5 44.775 34.075 44.625L30.5875 43.4625L31.4125 40.5375L34.45 41.55C34.875 41.675 35.375 41.775 35.95 41.85C36.525 41.925 37.375 41.975 38.5 42C38.5 41.725 38.4188 41.4625 38.2563 41.2125C38.0938 40.9625 37.9 40.8 37.675 40.725L28.9 37.5H26.5V45.75ZM17.5 51V34.5H28.9C29.075 34.5 29.25 34.5187 29.425 34.5562C29.6 34.5938 29.7625 34.6375 29.9125 34.6875L38.725 37.95C39.55 38.25 40.2188 38.775 40.7313 39.525C41.2438 40.275 41.5 41.1 41.5 42H44.5C45.75 42 46.8125 42.4125 47.6875 43.2375C48.5625 44.0625 49 45.15 49 46.5V48L37 51.75L26.5 48.825V51H17.5ZM20.5 48H23.5V37.5H20.5V48Z" fill="#63E963"/>
</svg>
