<svg width="48" height="48" viewBox="0 0 48 48" fill="none" xmlns="http://www.w3.org/2000/svg">
<rect width="48" height="48" rx="24" fill="#63E963" fill-opacity="0.2"/>
<path d="M23.9898 32.75L22.5801 31.4861C20.9435 30.0116 19.5905 28.7396 18.5211 27.6701C17.4516 26.6007 16.6009 25.6406 15.969 24.7899C15.337 23.9392 14.8955 23.1574 14.6443 22.4444C14.3932 21.7315 14.2676 21.0023 14.2676 20.2569C14.2676 18.7338 14.778 17.4618 15.7988 16.441C16.8197 15.4201 18.0917 14.9097 19.6148 14.9097C20.4574 14.9097 21.2595 15.088 22.0211 15.4444C22.7826 15.8009 23.4389 16.3032 23.9898 16.9514C24.5407 16.3032 25.197 15.8009 25.9586 15.4444C26.7201 15.088 27.5222 14.9097 28.3648 14.9097C29.8879 14.9097 31.1599 15.4201 32.1808 16.441C33.2016 17.4618 33.712 18.7338 33.712 20.2569C33.712 21.0023 33.5864 21.7315 33.3353 22.4444C33.0841 23.1574 32.6426 23.9392 32.0106 24.7899C31.3787 25.6406 30.528 26.6007 29.4586 27.6701C28.3891 28.7396 27.0361 30.0116 25.3995 31.4861L23.9898 32.75ZM23.9898 30.125C25.5454 28.7315 26.8254 27.5365 27.8301 26.5399C28.8347 25.5434 29.6287 24.6765 30.212 23.9392C30.7954 23.202 31.2004 22.5457 31.4273 21.9705C31.6542 21.3953 31.7676 20.8241 31.7676 20.2569C31.7676 19.2847 31.4435 18.4745 30.7954 17.8264C30.1472 17.1782 29.337 16.8542 28.3648 16.8542C27.6032 16.8542 26.8984 17.0689 26.2502 17.4983C25.6021 17.9277 25.1565 18.4745 24.9134 19.1389H23.0662C22.8231 18.4745 22.3775 17.9277 21.7294 17.4983C21.0812 17.0689 20.3764 16.8542 19.6148 16.8542C18.6426 16.8542 17.8324 17.1782 17.1842 17.8264C16.5361 18.4745 16.212 19.2847 16.212 20.2569C16.212 20.8241 16.3254 21.3953 16.5523 21.9705C16.7792 22.5457 17.1842 23.202 17.7676 23.9392C18.3509 24.6765 19.1449 25.5434 20.1495 26.5399C21.1542 27.5365 22.4342 28.7315 23.9898 30.125Z" fill="#63E963"/>
</svg>
