<svg width="48" height="48" viewBox="0 0 48 48" fill="none" xmlns="http://www.w3.org/2000/svg">
<rect width="48" height="48" rx="24" fill="#63E963" fill-opacity="0.2"/>
<path d="M17.5731 31.3888C16.8439 30.6597 16.2727 29.8171 15.8595 28.8611C15.4463 27.905 15.2397 26.9166 15.2397 25.8958C15.2397 24.8749 15.4342 23.8663 15.8231 22.8697C16.212 21.8732 16.8439 20.9374 17.7189 20.0624C18.286 19.4953 18.9869 19.0092 19.8213 18.6041C20.6558 18.199 21.6443 17.879 22.7866 17.644C23.929 17.4091 25.2334 17.2673 26.6998 17.2187C28.1663 17.1701 29.8069 17.2268 31.6217 17.3888C31.7513 19.1064 31.7918 20.6863 31.7432 22.1284C31.6946 23.5705 31.5609 24.8709 31.3422 26.0295C31.1234 27.188 30.8156 28.2008 30.4186 29.0677C30.0216 29.9346 29.5314 30.6597 28.9481 31.243C28.0893 32.1018 27.1778 32.7297 26.2137 33.1267C25.2496 33.5237 24.2652 33.7222 23.2606 33.7222C22.2073 33.7222 21.1784 33.5156 20.1738 33.1024C19.1691 32.6892 18.3022 32.118 17.5731 31.3888ZM20.2953 30.9999C20.7652 31.2754 21.2473 31.4739 21.7415 31.5954C22.2357 31.717 22.7421 31.7777 23.2606 31.7777C24.0059 31.7777 24.7432 31.6278 25.4724 31.3281C26.2016 31.0283 26.8983 30.5462 27.5627 29.8819C27.8543 29.5902 28.15 29.1811 28.4498 28.6545C28.7496 28.1278 29.0088 27.4392 29.2276 26.5885C29.4463 25.7378 29.6124 24.7089 29.7259 23.5017C29.8393 22.2945 29.8555 20.8564 29.7745 19.1874C28.9805 19.155 28.0852 19.1429 27.0887 19.151C26.0922 19.1591 25.0997 19.2361 24.1113 19.3819C23.1228 19.5277 22.183 19.7627 21.2918 20.0868C20.4006 20.4108 19.6715 20.8564 19.1043 21.4236C18.3752 22.1527 17.8728 22.8738 17.5974 23.5868C17.3219 24.2997 17.1842 24.9884 17.1842 25.6527C17.1842 26.6087 17.3665 27.4473 17.7311 28.1683C18.0956 28.8894 18.4157 29.3958 18.6911 29.6874C19.3717 28.3911 20.271 27.1475 21.3891 25.9565C22.5071 24.7656 23.8115 23.7893 25.3022 23.0277C24.1356 24.0486 23.1188 25.2031 22.2519 26.4913C21.385 27.7795 20.7328 29.2824 20.2953 30.9999Z" fill="#63E963"/>
</svg>
