<svg width="48" height="48" viewBox="0 0 48 48" fill="none" xmlns="http://www.w3.org/2000/svg">
<rect width="48" height="48" rx="24" fill="#63E963" fill-opacity="0.2"/>
<path d="M16.212 31.7778C15.6773 31.7778 15.2195 31.5874 14.8388 31.2067C14.458 30.8259 14.2676 30.3681 14.2676 29.8334V18.1667C14.2676 17.632 14.458 17.1742 14.8388 16.7935C15.2195 16.4127 15.6773 16.2223 16.212 16.2223H31.7676C32.3023 16.2223 32.7601 16.4127 33.1408 16.7935C33.5216 17.1742 33.712 17.632 33.712 18.1667V29.8334C33.712 30.3681 33.5216 30.8259 33.1408 31.2067C32.7601 31.5874 32.3023 31.7778 31.7676 31.7778H16.212ZM23.9898 24.9723L16.212 20.1112V29.8334H31.7676V20.1112L23.9898 24.9723ZM23.9898 23.0278L31.7676 18.1667H16.212L23.9898 23.0278Z" fill="#63E963"/>
</svg>
