<svg width="36" height="44" viewBox="0 0 36 44" fill="none" xmlns="http://www.w3.org/2000/svg">
<path d="M17.8124 34C17.9124 34 18.0124 33.975 18.1124 33.925C18.2124 33.875 18.2874 33.825 18.3374 33.775L30.6374 21.475C30.9374 21.175 31.1561 20.8375 31.2936 20.4625C31.4311 20.0875 31.4999 19.7125 31.4999 19.3375C31.4999 18.9375 31.4311 18.5562 31.2936 18.1937C31.1561 17.8312 30.9374 17.5125 30.6374 17.2375L24.2624 10.8625C23.9874 10.5625 23.6686 10.3437 23.3061 10.2062C22.9436 10.0687 22.5624 10 22.1624 10C21.7874 10 21.4124 10.0687 21.0374 10.2062C20.6624 10.3437 20.3249 10.5625 20.0249 10.8625L19.6124 11.275L22.3874 14.0875C22.7624 14.4375 23.0374 14.8375 23.2124 15.2875C23.3874 15.7375 23.4749 16.2125 23.4749 16.7125C23.4749 17.7625 23.1186 18.6437 22.4061 19.3562C21.6936 20.0687 20.8124 20.425 19.7624 20.425C19.2624 20.425 18.7811 20.3375 18.3186 20.1625C17.8561 19.9875 17.4499 19.725 17.0999 19.375L14.2874 16.6L7.72486 23.1625C7.64986 23.2375 7.59361 23.3187 7.55611 23.4062C7.51861 23.4937 7.49986 23.5875 7.49986 23.6875C7.49986 23.8875 7.57486 24.0687 7.72486 24.2312C7.87486 24.3937 8.04986 24.475 8.24986 24.475C8.34986 24.475 8.44986 24.45 8.54986 24.4C8.64986 24.35 8.72486 24.3 8.77486 24.25L13.8749 19.15L15.9749 21.25L10.9124 26.35C10.8374 26.425 10.7811 26.5062 10.7436 26.5938C10.7061 26.6812 10.6874 26.775 10.6874 26.875C10.6874 27.075 10.7624 27.25 10.9124 27.4C11.0624 27.55 11.2374 27.625 11.4374 27.625C11.5374 27.625 11.6374 27.6 11.7374 27.55C11.8374 27.5 11.9124 27.45 11.9624 27.4L17.0624 22.3375L19.1624 24.4375L14.0999 29.5375C14.0249 29.5875 13.9686 29.6625 13.9311 29.7625C13.8936 29.8625 13.8749 29.9625 13.8749 30.0625C13.8749 30.2625 13.9499 30.4375 14.0999 30.5875C14.2499 30.7375 14.4249 30.8125 14.6249 30.8125C14.7249 30.8125 14.8186 30.7937 14.9061 30.7562C14.9936 30.7187 15.0749 30.6625 15.1499 30.5875L20.2499 25.525L22.3499 27.625L17.2499 32.725C17.1749 32.8 17.1186 32.8812 17.0811 32.9688C17.0436 33.0562 17.0249 33.15 17.0249 33.25C17.0249 33.45 17.1061 33.625 17.2686 33.775C17.4311 33.925 17.6124 34 17.8124 34ZM17.7749 37C16.8499 37 16.0311 36.6938 15.3186 36.0812C14.6061 35.4687 14.1874 34.7 14.0624 33.775C13.2124 33.65 12.4999 33.3 11.9249 32.725C11.3499 32.15 10.9999 31.4375 10.8749 30.5875C10.0249 30.4625 9.31861 30.1062 8.75611 29.5187C8.19361 28.9312 7.84986 28.225 7.72486 27.4C6.77486 27.275 5.99986 26.8625 5.39986 26.1625C4.79986 25.4625 4.49986 24.6375 4.49986 23.6875C4.49986 23.1875 4.59361 22.7062 4.78111 22.2437C4.96861 21.7812 5.23736 21.375 5.58736 21.025L14.2874 12.3625L19.1999 17.275C19.2499 17.35 19.3249 17.4062 19.4249 17.4437C19.5249 17.4812 19.6249 17.5 19.7249 17.5C19.9499 17.5 20.1374 17.4312 20.2874 17.2937C20.4374 17.1562 20.5124 16.975 20.5124 16.75C20.5124 16.65 20.4936 16.55 20.4561 16.45C20.4186 16.35 20.3624 16.275 20.2874 16.225L14.9249 10.8625C14.6499 10.5625 14.3311 10.3437 13.9686 10.2062C13.6061 10.0687 13.2249 10 12.8249 10C12.4499 10 12.0749 10.0687 11.6999 10.2062C11.3249 10.3437 10.9874 10.5625 10.6874 10.8625L5.39986 16.1875C5.17486 16.4125 4.98736 16.675 4.83736 16.975C4.68736 17.275 4.58736 17.575 4.53736 17.875C4.48736 18.175 4.48736 18.4812 4.53736 18.7937C4.58736 19.1062 4.68736 19.4 4.83736 19.675L2.66236 21.85C2.23736 21.275 1.92486 20.6437 1.72486 19.9562C1.52486 19.2687 1.44986 18.575 1.49986 17.875C1.54986 17.175 1.72486 16.4937 2.02486 15.8312C2.32486 15.1687 2.73736 14.575 3.26236 14.05L8.54986 8.7625C9.14986 8.1875 9.81861 7.75 10.5561 7.45C11.2936 7.15 12.0499 7 12.8249 7C13.5999 7 14.3561 7.15 15.0936 7.45C15.8311 7.75 16.4874 8.1875 17.0624 8.7625L17.4749 9.175L17.8874 8.7625C18.4874 8.1875 19.1561 7.75 19.8936 7.45C20.6311 7.15 21.3874 7 22.1624 7C22.9374 7 23.6936 7.15 24.4311 7.45C25.1686 7.75 25.8249 8.1875 26.3999 8.7625L32.7374 15.1C33.3124 15.675 33.7499 16.3375 34.0499 17.0875C34.3499 17.8375 34.4999 18.6 34.4999 19.375C34.4999 20.15 34.3499 20.9062 34.0499 21.6437C33.7499 22.3812 33.3124 23.0375 32.7374 23.6125L20.4374 35.875C20.0874 36.225 19.6811 36.5 19.2186 36.7C18.7561 36.9 18.2749 37 17.7749 37Z" fill="#63E963"/>
</svg>
