<svg width="48" height="48" viewBox="0 0 48 48" fill="none" xmlns="http://www.w3.org/2000/svg">
<g filter="url(#filter0_d_60_266)">
<rect x="2" y="1" width="44" height="44" rx="22" fill="white" fill-opacity="0.5" shape-rendering="crispEdges"/>
<path d="M20.9082 29.8759C27.1973 29.8759 30.6373 24.665 30.6373 20.1467C30.6373 19.9984 30.6373 19.8509 30.6273 19.705C31.2967 19.2205 31.8743 18.6205 32.3332 17.9334C31.7091 18.21 31.047 18.3915 30.369 18.4717C31.0829 18.0442 31.6171 17.372 31.8723 16.58C31.2013 16.9783 30.4671 17.259 29.7015 17.41C29.186 16.8615 28.504 16.4982 27.7612 16.3764C27.0184 16.2547 26.2561 16.3812 25.5924 16.7364C24.9288 17.0916 24.4007 17.6558 24.0901 18.3414C23.7794 19.0271 23.7035 19.796 23.874 20.5292C22.5145 20.4611 21.1845 20.1078 19.9704 19.4923C18.7562 18.8769 17.6851 18.013 16.8265 16.9567C16.3893 17.7094 16.2553 18.6004 16.452 19.4483C16.6486 20.2963 17.161 21.0374 17.8848 21.5209C17.3409 21.5051 16.8087 21.3588 16.3332 21.0942V21.1375C16.3335 21.9269 16.6068 22.6919 17.1068 23.3028C17.6068 23.9137 18.3027 24.3328 19.0765 24.4892C18.573 24.6265 18.0447 24.6464 17.5323 24.5475C17.7508 25.2271 18.1762 25.8214 18.7491 26.2472C19.322 26.6731 20.0136 26.9092 20.7273 26.9225C20.0183 27.4797 19.2063 27.8916 18.3379 28.1346C17.4696 28.3777 16.5618 28.4472 15.6665 28.3392C17.2303 29.3428 19.05 29.8751 20.9082 29.8725" fill="#1B431B"/>
</g>
<defs>
<filter id="filter0_d_60_266" x="0" y="0" width="48" height="48" filterUnits="userSpaceOnUse" color-interpolation-filters="sRGB">
<feFlood flood-opacity="0" result="BackgroundImageFix"/>
<feColorMatrix in="SourceAlpha" type="matrix" values="0 0 0 0 0 0 0 0 0 0 0 0 0 0 0 0 0 0 127 0" result="hardAlpha"/>
<feOffset dy="1"/>
<feGaussianBlur stdDeviation="1"/>
<feComposite in2="hardAlpha" operator="out"/>
<feColorMatrix type="matrix" values="0 0 0 0 0 0 0 0 0 0 0 0 0 0 0 0 0 0 0.05 0"/>
<feBlend mode="normal" in2="BackgroundImageFix" result="effect1_dropShadow_60_266"/>
<feBlend mode="normal" in="SourceGraphic" in2="effect1_dropShadow_60_266" result="shape"/>
</filter>
</defs>
</svg>
